<?xml version="1.0" encoding="UTF-8"?>
<svg id="Layer_1" data-name="Layer 1" xmlns="http://www.w3.org/2000/svg" viewBox="0 0 342.91 82.34">
  <defs>
    <style>
      .cls-1 {
        fill: #231f20;
      }
    </style>
  </defs>
  <path class="cls-1" d="M257.4,44.66l.99-16.88c0-.58-.47-1.05-1.05-1.05s-1.05.47-1.05,1.05l-.38,2.54-11.73-2.9,3.96-5.38,19.1.79-1.43,29.98c.83,3.4,2.5,6.48,4.17,6.48,3.85,0,4.62-4.97,4.81-13.89l-1.07-22.56,13.17-.73c-.19,2.5-.49,11.81-.49,16.36,0,4.88.67,7.52.42,16.51-.07.86.14,2.21-.24,6.12-5.69,8.05-13.11,7.16-19.16,6.8-6.87-.4-10.85-8.67-10.85-10.16,0-4.43.83-8.47.83-13.09Z"/>
  <path class="cls-1" d="M156.8,82.13l-.02-.19,15.19-18.9-.65-20.75-.4-21-18.2-17.66c37.51-1.08,67.23,16.69,67.89,39.71.46,15.92-11.18,29.71-41.5,33.9l-22.31,4.88ZM186.25,62.06c22.98-1.89,29.9-8.64,29.69-15.93-.29-10.23-12.22-19.27-30.61-22.63l-.79,18.79,1.71,19.77Z"/>
  <path class="cls-1" d="M61.57,76.61l-.1-.31,11.23-18.03-2.97-19.38-3.52-19.57-14.8-13.89c36.65-3.71,64.58,8.36,66.85,30.85,1.57,15.55-8.85,29.88-38.23,36.13l-18.45,4.22ZM85.95,57.02c22.37-3.48,28.66-10.57,27.94-17.69-1.01-9.99-13.32-18-31.57-19.99l.56,18.45,3.07,19.23Z"/>
  <path class="cls-1" d="M342.01,8.94l-.51,16.74c0,22.04.45,37.37,1.41,52.41l-10.21.95-.45-7.96c-3.72,7.57-8.03,8.15-12.01,8.15-5.2,0-9.18-6.72-9.18-22.33,0-20.81,7.26-31.31,21-34.72v-10.03s-.15-2-.15-2l-15.93-4.02-.22-1.67,26.25.22v4.26ZM326.47,69.86c2.12,0,5.97-4.35,5.97-24.98l-.26-15.89c-1.61-.76-3.08-1.23-4.75-1.23-3.79,0-6.1,5.2-6.1,23.56,0,14.66,2.18,18.54,5.14,18.54Z"/>
  <path class="cls-1" d="M301.46,18.35c-5.05,0-8.56-5.44-7.57-11.29,3.25-1.59,6.37-1.53,8.76-1.53l1.19-5.51c.93-.13,1.93.2,2.39.73-1.2,4.38-3.52,12.95-4.78,17.59ZM210.97,79.01l-.41-3.2,3.85-.26,4.07-.28,69.04-4.73c1.08-.27,3.33-2.52,5.56-5.56,2-2.73,2-8.78,1.99-9.8l.4-26.49-2.41-6.92,11.44-.71c.52,9.4-1.32,48.37-1.32,57.87l-81.2.07h-3.55s-3.55,0-3.55,0h-3.9Z"/>
  <path class="cls-1" d="M5.61,60.21c7.27-4.47,13.82-9.76,18.8-15.37C10.08,42.24,0,32.78,0,21.25S7.08,3.43,19.75,3.43c4.26,0,18.83,1.09,22.97,2.86l17.06,15.24,5.72,34.82-15.76,23.98-2.6-14.48-17.32,16.49c-12.05-2.8-22.23-12.88-24.2-22.13ZM26.59,42.24c5.06-2.08,12.27-14.85,12.27-20.35,0-10.49-11.12-14.14-20.26-14.14-7.58,0-14.23,5.71-14.23,14.02,0,9.76,8.21,18.07,22.23,20.46ZM35.72,68.62l10.16-10.63-.33-3.75-27.37,1.3c3.95,5.51,7.88,8.93,17.54,13.08ZM23.37,51.9l21.56-1.34-2.76-18.65c-3.32,6.44-12.57,16.35-18.8,19.98Z"/>
  <path class="cls-1" d="M164.78,42.29l-.28-18.75-11.7-12.09.54,24.65h-19.51l-.43-13.85-1.18-18.42-39.92-.74s-.5.2,0,.33c19.96,4.85,32.67,15.82,34.33,32.21,1.84,18.14-10.64,34.9-45.72,42.27l-7.77,1.76-.02,1.25,28.19-2.49,33.47-1.05-1.07-29.44h19.66l.53,24.87,11.47-12.34-.57-18.14ZM153.56,44.02h-19.95l-.07-1.66.14-2.38h19.87l.07,2.38-.07,1.66Z"/>
  <path class="cls-1" d="M248.2,22c-4.32,0-9.5,4.82-13.68,16.99l-.36-7.34-.5-7.85-12.62,2.39c3.67,5.67,5.81,11.92,6.07,18.44.33,8.49-2.97,17.32-10.73,24.34l19.65-.81-.22-4.18c0-21.82,2.23-30.96,6.41-30.96,2.02,0,5.33,2.23,5.33,15.99h2.09c0-14.26,6.41-15.7,6.41-19.8s-4.46-7.2-7.85-7.2Z"/>
</svg>